G04 EAGLE Gerber RS-274X export*
G75*
%MOMM*%
%FSLAX34Y34*%
%LPD*%
%IN*%
%IPPOS*%
%AMOC8*
5,1,8,0,0,1.08239X$1,22.5*%
G01*
%ADD10C,0.254000*%


D10*
X-267600Y401300D02*
X-167600Y401300D01*
X-167600Y-38700D01*
X-67600Y-138700D01*
X372400Y-138700D01*
X472400Y-38700D01*
X472400Y401300D01*
X572400Y401300D01*
X570802Y437905D01*
X566019Y474232D01*
X558089Y510004D01*
X547071Y544948D01*
X533049Y578800D01*
X516131Y611300D01*
X496444Y642202D01*
X474139Y671271D01*
X449385Y698285D01*
X422371Y723039D01*
X393302Y745344D01*
X362400Y765031D01*
X329900Y781949D01*
X296048Y795971D01*
X261104Y806989D01*
X225332Y814919D01*
X189005Y819702D01*
X152400Y821300D01*
X115795Y819702D01*
X79468Y814919D01*
X43696Y806989D01*
X8752Y795971D01*
X-25100Y781949D01*
X-57600Y765031D01*
X-88502Y745344D01*
X-117571Y723039D01*
X-144585Y698285D01*
X-169339Y671271D01*
X-191644Y642202D01*
X-211331Y611300D01*
X-228249Y578800D01*
X-242271Y544948D01*
X-253289Y510004D01*
X-261219Y474232D01*
X-266002Y437905D01*
X-267600Y401300D01*
X-113411Y330986D02*
X-113487Y330021D01*
X-113638Y329065D01*
X-113864Y328124D01*
X-114164Y327203D01*
X-114534Y326309D01*
X-114973Y325446D01*
X-115479Y324621D01*
X-116048Y323838D01*
X-116677Y323101D01*
X-117361Y322417D01*
X-118098Y321788D01*
X-118881Y321219D01*
X-119706Y320713D01*
X-120569Y320274D01*
X-121463Y319904D01*
X-122384Y319604D01*
X-123325Y319378D01*
X-124281Y319227D01*
X-125246Y319151D01*
X-126214Y319151D01*
X-127179Y319227D01*
X-128135Y319378D01*
X-129076Y319604D01*
X-129997Y319904D01*
X-130891Y320274D01*
X-131754Y320713D01*
X-132579Y321219D01*
X-133363Y321788D01*
X-134099Y322417D01*
X-134783Y323101D01*
X-135412Y323838D01*
X-135981Y324621D01*
X-136487Y325446D01*
X-136926Y326309D01*
X-137297Y327203D01*
X-137596Y328124D01*
X-137822Y329065D01*
X-137973Y330021D01*
X-138049Y330986D01*
X-138049Y331954D01*
X-137973Y332919D01*
X-137822Y333875D01*
X-137596Y334816D01*
X-137297Y335737D01*
X-136926Y336631D01*
X-136487Y337494D01*
X-135981Y338319D01*
X-135412Y339103D01*
X-134783Y339839D01*
X-134099Y340523D01*
X-133363Y341152D01*
X-132579Y341721D01*
X-131754Y342227D01*
X-130891Y342666D01*
X-129997Y343037D01*
X-129076Y343336D01*
X-128135Y343562D01*
X-127179Y343713D01*
X-126214Y343789D01*
X-125246Y343789D01*
X-124281Y343713D01*
X-123325Y343562D01*
X-122384Y343336D01*
X-121463Y343037D01*
X-120569Y342666D01*
X-119706Y342227D01*
X-118881Y341721D01*
X-118098Y341152D01*
X-117361Y340523D01*
X-116677Y339839D01*
X-116048Y339103D01*
X-115479Y338319D01*
X-114973Y337494D01*
X-114534Y336631D01*
X-114164Y335737D01*
X-113864Y334816D01*
X-113638Y333875D01*
X-113487Y332919D01*
X-113411Y331954D01*
X-113411Y330986D01*
X-113411Y150646D02*
X-113487Y149681D01*
X-113638Y148725D01*
X-113864Y147784D01*
X-114164Y146863D01*
X-114534Y145969D01*
X-114973Y145106D01*
X-115479Y144281D01*
X-116048Y143498D01*
X-116677Y142761D01*
X-117361Y142077D01*
X-118098Y141448D01*
X-118881Y140879D01*
X-119706Y140373D01*
X-120569Y139934D01*
X-121463Y139564D01*
X-122384Y139264D01*
X-123325Y139038D01*
X-124281Y138887D01*
X-125246Y138811D01*
X-126214Y138811D01*
X-127179Y138887D01*
X-128135Y139038D01*
X-129076Y139264D01*
X-129997Y139564D01*
X-130891Y139934D01*
X-131754Y140373D01*
X-132579Y140879D01*
X-133363Y141448D01*
X-134099Y142077D01*
X-134783Y142761D01*
X-135412Y143498D01*
X-135981Y144281D01*
X-136487Y145106D01*
X-136926Y145969D01*
X-137297Y146863D01*
X-137596Y147784D01*
X-137822Y148725D01*
X-137973Y149681D01*
X-138049Y150646D01*
X-138049Y151614D01*
X-137973Y152579D01*
X-137822Y153535D01*
X-137596Y154476D01*
X-137297Y155397D01*
X-136926Y156291D01*
X-136487Y157154D01*
X-135981Y157979D01*
X-135412Y158763D01*
X-134783Y159499D01*
X-134099Y160183D01*
X-133363Y160812D01*
X-132579Y161381D01*
X-131754Y161887D01*
X-130891Y162326D01*
X-129997Y162697D01*
X-129076Y162996D01*
X-128135Y163222D01*
X-127179Y163373D01*
X-126214Y163449D01*
X-125246Y163449D01*
X-124281Y163373D01*
X-123325Y163222D01*
X-122384Y162996D01*
X-121463Y162697D01*
X-120569Y162326D01*
X-119706Y161887D01*
X-118881Y161381D01*
X-118098Y160812D01*
X-117361Y160183D01*
X-116677Y159499D01*
X-116048Y158763D01*
X-115479Y157979D01*
X-114973Y157154D01*
X-114534Y156291D01*
X-114164Y155397D01*
X-113864Y154476D01*
X-113638Y153535D01*
X-113487Y152579D01*
X-113411Y151614D01*
X-113411Y150646D01*
X441579Y330986D02*
X441503Y330021D01*
X441352Y329065D01*
X441126Y328124D01*
X440827Y327203D01*
X440456Y326309D01*
X440017Y325446D01*
X439511Y324621D01*
X438942Y323838D01*
X438313Y323101D01*
X437629Y322417D01*
X436893Y321788D01*
X436109Y321219D01*
X435284Y320713D01*
X434421Y320274D01*
X433527Y319904D01*
X432606Y319604D01*
X431665Y319378D01*
X430709Y319227D01*
X429744Y319151D01*
X428776Y319151D01*
X427811Y319227D01*
X426855Y319378D01*
X425914Y319604D01*
X424993Y319904D01*
X424099Y320274D01*
X423236Y320713D01*
X422411Y321219D01*
X421628Y321788D01*
X420891Y322417D01*
X420207Y323101D01*
X419578Y323838D01*
X419009Y324621D01*
X418503Y325446D01*
X418064Y326309D01*
X417694Y327203D01*
X417394Y328124D01*
X417168Y329065D01*
X417017Y330021D01*
X416941Y330986D01*
X416941Y331954D01*
X417017Y332919D01*
X417168Y333875D01*
X417394Y334816D01*
X417694Y335737D01*
X418064Y336631D01*
X418503Y337494D01*
X419009Y338319D01*
X419578Y339103D01*
X420207Y339839D01*
X420891Y340523D01*
X421628Y341152D01*
X422411Y341721D01*
X423236Y342227D01*
X424099Y342666D01*
X424993Y343037D01*
X425914Y343336D01*
X426855Y343562D01*
X427811Y343713D01*
X428776Y343789D01*
X429744Y343789D01*
X430709Y343713D01*
X431665Y343562D01*
X432606Y343336D01*
X433527Y343037D01*
X434421Y342666D01*
X435284Y342227D01*
X436109Y341721D01*
X436893Y341152D01*
X437629Y340523D01*
X438313Y339839D01*
X438942Y339103D01*
X439511Y338319D01*
X440017Y337494D01*
X440456Y336631D01*
X440827Y335737D01*
X441126Y334816D01*
X441352Y333875D01*
X441503Y332919D01*
X441579Y331954D01*
X441579Y330986D01*
X441579Y150646D02*
X441503Y149681D01*
X441352Y148725D01*
X441126Y147784D01*
X440827Y146863D01*
X440456Y145969D01*
X440017Y145106D01*
X439511Y144281D01*
X438942Y143498D01*
X438313Y142761D01*
X437629Y142077D01*
X436893Y141448D01*
X436109Y140879D01*
X435284Y140373D01*
X434421Y139934D01*
X433527Y139564D01*
X432606Y139264D01*
X431665Y139038D01*
X430709Y138887D01*
X429744Y138811D01*
X428776Y138811D01*
X427811Y138887D01*
X426855Y139038D01*
X425914Y139264D01*
X424993Y139564D01*
X424099Y139934D01*
X423236Y140373D01*
X422411Y140879D01*
X421628Y141448D01*
X420891Y142077D01*
X420207Y142761D01*
X419578Y143498D01*
X419009Y144281D01*
X418503Y145106D01*
X418064Y145969D01*
X417694Y146863D01*
X417394Y147784D01*
X417168Y148725D01*
X417017Y149681D01*
X416941Y150646D01*
X416941Y151614D01*
X417017Y152579D01*
X417168Y153535D01*
X417394Y154476D01*
X417694Y155397D01*
X418064Y156291D01*
X418503Y157154D01*
X419009Y157979D01*
X419578Y158763D01*
X420207Y159499D01*
X420891Y160183D01*
X421628Y160812D01*
X422411Y161381D01*
X423236Y161887D01*
X424099Y162326D01*
X424993Y162697D01*
X425914Y162996D01*
X426855Y163222D01*
X427811Y163373D01*
X428776Y163449D01*
X429744Y163449D01*
X430709Y163373D01*
X431665Y163222D01*
X432606Y162996D01*
X433527Y162697D01*
X434421Y162326D01*
X435284Y161887D01*
X436109Y161381D01*
X436893Y160812D01*
X437629Y160183D01*
X438313Y159499D01*
X438942Y158763D01*
X439511Y157979D01*
X440017Y157154D01*
X440456Y156291D01*
X440827Y155397D01*
X441126Y154476D01*
X441352Y153535D01*
X441503Y152579D01*
X441579Y151614D01*
X441579Y150646D01*
M02*
