G04 EAGLE Gerber RS-274X export*
G75*
%MOMM*%
%FSLAX34Y34*%
%LPD*%
%INSolderpaste Top*%
%IPPOS*%
%AMOC8*
5,1,8,0,0,1.08239X$1,22.5*%
G01*
%ADD10R,1.700000X2.500000*%
%ADD11R,0.800000X1.200000*%
%ADD12R,1.200000X0.800000*%
%ADD13R,1.219000X2.235000*%
%ADD14R,3.600000X2.200000*%
%ADD15R,0.300000X1.300000*%
%ADD16R,1.300000X0.300000*%
%ADD17R,0.609600X2.209800*%
%ADD18R,0.300000X1.550000*%


D10*
X247700Y-38100D03*
X285700Y-38100D03*
D11*
X40750Y450850D03*
X22750Y450850D03*
D12*
X101600Y556150D03*
X101600Y574150D03*
X-58420Y-16400D03*
X-58420Y-34400D03*
D11*
X365650Y-12700D03*
X383650Y-12700D03*
D10*
X165150Y-38100D03*
X203150Y-38100D03*
D11*
X265540Y595630D03*
X247540Y595630D03*
D10*
X387300Y533400D03*
X349300Y533400D03*
D12*
X107950Y377300D03*
X107950Y359300D03*
X184150Y383650D03*
X184150Y365650D03*
X209550Y390000D03*
X209550Y372000D03*
D11*
X227440Y538480D03*
X209440Y538480D03*
X59800Y495300D03*
X41800Y495300D03*
X333900Y622300D03*
X351900Y622300D03*
X118000Y158750D03*
X136000Y158750D03*
X149750Y158750D03*
X167750Y158750D03*
X181500Y158750D03*
X199500Y158750D03*
D12*
X152400Y396350D03*
X152400Y378350D03*
D11*
X-175150Y450850D03*
X-193150Y450850D03*
X41800Y152400D03*
X59800Y152400D03*
X118000Y120650D03*
X136000Y120650D03*
X149750Y120650D03*
X167750Y120650D03*
X181500Y120650D03*
X199500Y120650D03*
D12*
X152400Y327550D03*
X152400Y345550D03*
D11*
X402700Y622300D03*
X384700Y622300D03*
D12*
X57150Y-48150D03*
X57150Y-66150D03*
X107950Y-48150D03*
X107950Y-66150D03*
D11*
X-1160Y120650D03*
X-19160Y120650D03*
X-62340Y107950D03*
X-44340Y107950D03*
X104250Y723900D03*
X86250Y723900D03*
X373490Y107950D03*
X355490Y107950D03*
X293260Y107950D03*
X311260Y107950D03*
X73550Y152400D03*
X91550Y152400D03*
X200550Y723900D03*
X218550Y723900D03*
D12*
X495300Y441850D03*
X495300Y459850D03*
D11*
X91550Y660400D03*
X73550Y660400D03*
D12*
X-133350Y429150D03*
X-133350Y447150D03*
X438150Y422800D03*
X438150Y440800D03*
D11*
X225950Y660400D03*
X243950Y660400D03*
D12*
X133350Y556150D03*
X133350Y574150D03*
D13*
X268990Y534160D03*
X292100Y534160D03*
X315210Y534160D03*
D14*
X292100Y596140D03*
D15*
X154900Y533750D03*
X149900Y533750D03*
X144900Y533750D03*
X159900Y533750D03*
X164900Y533750D03*
X169900Y533750D03*
X174900Y533750D03*
X179900Y533750D03*
X189900Y533750D03*
X184900Y533750D03*
X139900Y533750D03*
X134900Y533750D03*
X129900Y533750D03*
X124900Y533750D03*
X119900Y533750D03*
X114900Y533750D03*
D16*
X94900Y478750D03*
X94900Y483750D03*
X94900Y488750D03*
X94900Y493750D03*
X94900Y498750D03*
X94900Y503750D03*
X94900Y508750D03*
X94900Y513750D03*
X94900Y473750D03*
X94900Y468750D03*
X94900Y463750D03*
X94900Y458750D03*
X94900Y453750D03*
X94900Y448750D03*
X94900Y443750D03*
X94900Y438750D03*
D15*
X154900Y418750D03*
X149900Y418750D03*
X144900Y418750D03*
X159900Y418750D03*
X164900Y418750D03*
X169900Y418750D03*
X174900Y418750D03*
X179900Y418750D03*
X189900Y418750D03*
X184900Y418750D03*
X139900Y418750D03*
X134900Y418750D03*
X129900Y418750D03*
X124900Y418750D03*
X119900Y418750D03*
X114900Y418750D03*
D16*
X209900Y478750D03*
X209900Y483750D03*
X209900Y488750D03*
X209900Y493750D03*
X209900Y498750D03*
X209900Y503750D03*
X209900Y508750D03*
X209900Y513750D03*
X209900Y473750D03*
X209900Y468750D03*
X209900Y463750D03*
X209900Y458750D03*
X209900Y453750D03*
X209900Y448750D03*
X209900Y443750D03*
X209900Y438750D03*
D17*
X-25400Y25400D03*
X-38100Y25400D03*
X-50800Y25400D03*
X-63500Y25400D03*
X-25400Y76200D03*
X-38100Y76200D03*
X-50800Y76200D03*
X-63500Y76200D03*
X368300Y25400D03*
X355600Y25400D03*
X342900Y25400D03*
X330200Y25400D03*
X368300Y76200D03*
X355600Y76200D03*
X342900Y76200D03*
X330200Y76200D03*
D18*
X133460Y638750D03*
X146460Y638750D03*
X159460Y638750D03*
X165960Y638750D03*
X172460Y638750D03*
X152960Y638750D03*
X139960Y638750D03*
X178960Y638750D03*
X133460Y694750D03*
X146460Y694750D03*
X159460Y694750D03*
X165960Y694750D03*
X172460Y694750D03*
X152960Y694750D03*
X139960Y694750D03*
X178960Y694750D03*
D17*
X19050Y25400D03*
X6350Y25400D03*
X31750Y25400D03*
X44450Y25400D03*
X44450Y76200D03*
X31750Y76200D03*
X19050Y76200D03*
X6350Y76200D03*
X273050Y25400D03*
X260350Y25400D03*
X285750Y25400D03*
X298450Y25400D03*
X298450Y76200D03*
X285750Y76200D03*
X273050Y76200D03*
X260350Y76200D03*
M02*
