G04 EAGLE Gerber RS-274X export*
G75*
%MOMM*%
%FSLAX34Y34*%
%LPD*%
%INSoldermask Top*%
%IPPOS*%
%AMOC8*
5,1,8,0,0,1.08239X$1,22.5*%
G01*
%ADD10C,2.667000*%
%ADD11C,1.981200*%
%ADD12R,1.903200X2.703200*%
%ADD13R,1.003200X1.403200*%
%ADD14R,1.403200X1.003200*%
%ADD15P,2.254402X8X112.500000*%
%ADD16C,1.625600*%
%ADD17R,1.879600X1.879600*%
%ADD18C,1.879600*%
%ADD19R,1.422200X2.438200*%
%ADD20R,3.803200X2.403200*%
%ADD21R,0.503200X1.503200*%
%ADD22R,1.503200X0.503200*%
%ADD23R,0.812800X2.413000*%
%ADD24R,0.503200X1.753200*%
%ADD25C,0.959600*%
%ADD26C,1.159600*%
%ADD27C,2.146300*%
%ADD28C,1.209600*%
%ADD29C,2.184400*%
%ADD30C,1.059600*%
%ADD31C,1.478200*%


D10*
X-125730Y331470D03*
X-125730Y151130D03*
X429260Y331470D03*
X429260Y151130D03*
D11*
X38850Y-101600D03*
X-26150Y-101600D03*
X140450Y-101600D03*
X75450Y-101600D03*
D12*
X247700Y-38100D03*
X285700Y-38100D03*
D13*
X40750Y450850D03*
X22750Y450850D03*
D14*
X101600Y556150D03*
X101600Y574150D03*
X-58420Y-16400D03*
X-58420Y-34400D03*
D13*
X365650Y-12700D03*
X383650Y-12700D03*
D12*
X165150Y-38100D03*
X203150Y-38100D03*
D13*
X265540Y595630D03*
X247540Y595630D03*
D12*
X387300Y533400D03*
X349300Y533400D03*
D14*
X107950Y377300D03*
X107950Y359300D03*
X184150Y383650D03*
X184150Y365650D03*
X209550Y390000D03*
X209550Y372000D03*
D13*
X227440Y538480D03*
X209440Y538480D03*
X59800Y495300D03*
X41800Y495300D03*
D15*
X-6350Y527050D03*
X-31750Y527050D03*
X-6350Y552450D03*
X-31750Y552450D03*
X-6350Y577850D03*
X-31750Y577850D03*
X-6350Y603250D03*
X-31750Y603250D03*
D16*
X-204459Y482029D03*
X-179094Y483358D03*
X43137Y716520D03*
X47547Y741534D03*
X244112Y741496D03*
X248522Y716481D03*
X475008Y483491D03*
X500373Y482162D03*
D17*
X350200Y-101600D03*
X330200Y-101600D03*
X310200Y-101600D03*
D13*
X333900Y622300D03*
X351900Y622300D03*
X118000Y158750D03*
X136000Y158750D03*
X149750Y158750D03*
X167750Y158750D03*
X181500Y158750D03*
X199500Y158750D03*
D14*
X152400Y396350D03*
X152400Y378350D03*
D18*
X31750Y361950D03*
X31750Y387350D03*
X6350Y361950D03*
X6350Y387350D03*
X-19050Y361950D03*
X-19050Y387350D03*
X323850Y361950D03*
X323850Y387350D03*
X298450Y361950D03*
X298450Y387350D03*
X273050Y361950D03*
X273050Y387350D03*
D13*
X-175150Y450850D03*
X-193150Y450850D03*
X41800Y152400D03*
X59800Y152400D03*
X118000Y120650D03*
X136000Y120650D03*
X149750Y120650D03*
X167750Y120650D03*
X181500Y120650D03*
X199500Y120650D03*
D14*
X152400Y327550D03*
X152400Y345550D03*
D13*
X402700Y622300D03*
X384700Y622300D03*
D14*
X57150Y-48150D03*
X57150Y-66150D03*
X107950Y-48150D03*
X107950Y-66150D03*
D13*
X-1160Y120650D03*
X-19160Y120650D03*
X-62340Y107950D03*
X-44340Y107950D03*
X104250Y723900D03*
X86250Y723900D03*
X373490Y107950D03*
X355490Y107950D03*
X293260Y107950D03*
X311260Y107950D03*
X73550Y152400D03*
X91550Y152400D03*
X200550Y723900D03*
X218550Y723900D03*
D14*
X495300Y441850D03*
X495300Y459850D03*
D13*
X91550Y660400D03*
X73550Y660400D03*
D14*
X-133350Y429150D03*
X-133350Y447150D03*
X438150Y422800D03*
X438150Y440800D03*
D13*
X225950Y660400D03*
X243950Y660400D03*
D14*
X133350Y556150D03*
X133350Y574150D03*
D19*
X268990Y534160D03*
X292100Y534160D03*
X315210Y534160D03*
D20*
X292100Y596140D03*
D18*
X127000Y50800D03*
X158750Y50800D03*
X190500Y50800D03*
D16*
X-127017Y464215D03*
X-152383Y462885D03*
X30145Y686877D03*
X25735Y661863D03*
X449563Y462885D03*
X424197Y464215D03*
X262555Y660593D03*
X258145Y685607D03*
D21*
X154900Y533750D03*
X149900Y533750D03*
X144900Y533750D03*
X159900Y533750D03*
X164900Y533750D03*
X169900Y533750D03*
X174900Y533750D03*
X179900Y533750D03*
X189900Y533750D03*
X184900Y533750D03*
X139900Y533750D03*
X134900Y533750D03*
X129900Y533750D03*
X124900Y533750D03*
X119900Y533750D03*
X114900Y533750D03*
D22*
X94900Y478750D03*
X94900Y483750D03*
X94900Y488750D03*
X94900Y493750D03*
X94900Y498750D03*
X94900Y503750D03*
X94900Y508750D03*
X94900Y513750D03*
X94900Y473750D03*
X94900Y468750D03*
X94900Y463750D03*
X94900Y458750D03*
X94900Y453750D03*
X94900Y448750D03*
X94900Y443750D03*
X94900Y438750D03*
D21*
X154900Y418750D03*
X149900Y418750D03*
X144900Y418750D03*
X159900Y418750D03*
X164900Y418750D03*
X169900Y418750D03*
X174900Y418750D03*
X179900Y418750D03*
X189900Y418750D03*
X184900Y418750D03*
X139900Y418750D03*
X134900Y418750D03*
X129900Y418750D03*
X124900Y418750D03*
X119900Y418750D03*
X114900Y418750D03*
D22*
X209900Y478750D03*
X209900Y483750D03*
X209900Y488750D03*
X209900Y493750D03*
X209900Y498750D03*
X209900Y503750D03*
X209900Y508750D03*
X209900Y513750D03*
X209900Y473750D03*
X209900Y468750D03*
X209900Y463750D03*
X209900Y458750D03*
X209900Y453750D03*
X209900Y448750D03*
X209900Y443750D03*
X209900Y438750D03*
D17*
X215900Y-101600D03*
X241300Y-101600D03*
X190500Y-101600D03*
D23*
X-25400Y25400D03*
X-38100Y25400D03*
X-50800Y25400D03*
X-63500Y25400D03*
X-25400Y76200D03*
X-38100Y76200D03*
X-50800Y76200D03*
X-63500Y76200D03*
X368300Y25400D03*
X355600Y25400D03*
X342900Y25400D03*
X330200Y25400D03*
X368300Y76200D03*
X355600Y76200D03*
X342900Y76200D03*
X330200Y76200D03*
D24*
X133460Y638750D03*
X146460Y638750D03*
X159460Y638750D03*
X165960Y638750D03*
X172460Y638750D03*
X152960Y638750D03*
X139960Y638750D03*
X178960Y638750D03*
X133460Y694750D03*
X146460Y694750D03*
X159460Y694750D03*
X165960Y694750D03*
X172460Y694750D03*
X152960Y694750D03*
X139960Y694750D03*
X178960Y694750D03*
D23*
X19050Y25400D03*
X6350Y25400D03*
X31750Y25400D03*
X44450Y25400D03*
X44450Y76200D03*
X31750Y76200D03*
X19050Y76200D03*
X6350Y76200D03*
X273050Y25400D03*
X260350Y25400D03*
X285750Y25400D03*
X298450Y25400D03*
X298450Y76200D03*
X285750Y76200D03*
X273050Y76200D03*
X260350Y76200D03*
D25*
X393700Y-12700D03*
X387350Y107950D03*
X292100Y120650D03*
X114300Y101600D03*
X146050Y101600D03*
X177800Y101600D03*
X107950Y-38100D03*
X57150Y-38100D03*
X-57150Y-44450D03*
X-57150Y120650D03*
X38100Y139700D03*
X-133350Y419100D03*
X101600Y660400D03*
X223746Y648520D03*
X412750Y622300D03*
X406400Y533400D03*
X438150Y412750D03*
X184150Y355600D03*
X209550Y361950D03*
X140180Y311150D03*
X107950Y342900D03*
X190500Y393700D03*
X107950Y400050D03*
X14196Y438150D03*
X31750Y495300D03*
X101600Y584200D03*
X127000Y584200D03*
X120650Y546100D03*
X114300Y463550D03*
X190500Y635000D03*
D26*
X234950Y596900D03*
D25*
X209550Y552450D03*
D26*
X292100Y495300D03*
D27*
X292100Y622300D03*
D28*
X146050Y-38100D03*
X228600Y-38100D03*
D25*
X171450Y431800D03*
D26*
X254000Y101600D03*
X342900Y95250D03*
X0Y107950D03*
X-44450Y95250D03*
D25*
X222250Y704850D03*
X508000Y457200D03*
D29*
X269240Y469900D03*
D26*
X314960Y508000D03*
D30*
X101600Y527050D03*
X222250Y520700D03*
X160290Y623026D03*
X160290Y612938D03*
X160290Y602850D03*
X160290Y591284D03*
X19050Y583074D03*
X127000Y393700D03*
X120650Y196850D03*
X127783Y380217D03*
X134133Y196850D03*
X139700Y374650D03*
X146050Y196850D03*
X177800Y495300D03*
X225334Y444500D03*
X289560Y426430D03*
X279400Y420080D03*
X222250Y434412D03*
X168029Y488950D03*
X151934Y489416D03*
X161290Y242570D03*
X114300Y488950D03*
D25*
X75720Y203200D03*
D30*
X139700Y488950D03*
X171450Y228600D03*
X86360Y185420D03*
X95250Y419100D03*
X69850Y461420D03*
X76200Y494574D03*
X304800Y425450D03*
X323850Y425450D03*
X243296Y636027D03*
X190500Y517616D03*
X126928Y488672D03*
D25*
X63500Y184150D03*
D30*
X57150Y19050D03*
X-31121Y6979D03*
D31*
X19050Y50800D03*
X25400Y101600D03*
X-6350Y336550D03*
D30*
X247650Y12700D03*
X330200Y6350D03*
D31*
X254000Y120650D03*
X273050Y50800D03*
M02*
