G04 EAGLE Gerber RS-274X export*
G75*
%MOMM*%
%FSLAX34Y34*%
%LPD*%
%INSoldermask Bottom*%
%IPPOS*%
%AMOC8*
5,1,8,0,0,1.08239X$1,22.5*%
G01*
%ADD10C,2.667000*%
%ADD11C,1.981200*%
%ADD12P,2.254402X8X112.500000*%
%ADD13C,1.625600*%
%ADD14R,1.879600X1.879600*%
%ADD15C,1.879600*%
%ADD16C,0.959600*%
%ADD17C,1.159600*%
%ADD18C,2.146300*%
%ADD19C,1.209600*%
%ADD20C,2.184400*%
%ADD21C,1.059600*%
%ADD22C,1.478200*%


D10*
X-125730Y331470D03*
X-125730Y151130D03*
X429260Y331470D03*
X429260Y151130D03*
D11*
X38850Y-101600D03*
X-26150Y-101600D03*
X140450Y-101600D03*
X75450Y-101600D03*
D12*
X-6350Y527050D03*
X-31750Y527050D03*
X-6350Y552450D03*
X-31750Y552450D03*
X-6350Y577850D03*
X-31750Y577850D03*
X-6350Y603250D03*
X-31750Y603250D03*
D13*
X-204459Y482029D03*
X-179094Y483358D03*
X43137Y716520D03*
X47547Y741534D03*
X244112Y741496D03*
X248522Y716481D03*
X475008Y483491D03*
X500373Y482162D03*
D14*
X350200Y-101600D03*
X330200Y-101600D03*
X310200Y-101600D03*
D15*
X31750Y361950D03*
X31750Y387350D03*
X6350Y361950D03*
X6350Y387350D03*
X-19050Y361950D03*
X-19050Y387350D03*
X323850Y361950D03*
X323850Y387350D03*
X298450Y361950D03*
X298450Y387350D03*
X273050Y361950D03*
X273050Y387350D03*
X127000Y50800D03*
X158750Y50800D03*
X190500Y50800D03*
D13*
X-127017Y464215D03*
X-152383Y462885D03*
X30145Y686877D03*
X25735Y661863D03*
X449563Y462885D03*
X424197Y464215D03*
X262555Y660593D03*
X258145Y685607D03*
D14*
X215900Y-101600D03*
X241300Y-101600D03*
X190500Y-101600D03*
D16*
X393700Y-12700D03*
X387350Y107950D03*
X292100Y120650D03*
X114300Y101600D03*
X146050Y101600D03*
X177800Y101600D03*
X107950Y-38100D03*
X57150Y-38100D03*
X-57150Y-44450D03*
X-57150Y120650D03*
X38100Y139700D03*
X-133350Y419100D03*
X101600Y660400D03*
X223746Y648520D03*
X412750Y622300D03*
X406400Y533400D03*
X438150Y412750D03*
X184150Y355600D03*
X209550Y361950D03*
X140180Y311150D03*
X107950Y342900D03*
X190500Y393700D03*
X107950Y400050D03*
X14196Y438150D03*
X31750Y495300D03*
X101600Y584200D03*
X127000Y584200D03*
X120650Y546100D03*
X114300Y463550D03*
X190500Y635000D03*
D17*
X234950Y596900D03*
D16*
X209550Y552450D03*
D17*
X292100Y495300D03*
D18*
X292100Y622300D03*
D19*
X146050Y-38100D03*
X228600Y-38100D03*
D16*
X171450Y431800D03*
D17*
X254000Y101600D03*
X342900Y95250D03*
X0Y107950D03*
X-44450Y95250D03*
D16*
X222250Y704850D03*
X508000Y457200D03*
D20*
X269240Y469900D03*
D17*
X314960Y508000D03*
D21*
X101600Y527050D03*
X222250Y520700D03*
X160290Y623026D03*
X160290Y612938D03*
X160290Y602850D03*
X160290Y591284D03*
X19050Y583074D03*
X127000Y393700D03*
X120650Y196850D03*
X127783Y380217D03*
X134133Y196850D03*
X139700Y374650D03*
X146050Y196850D03*
X177800Y495300D03*
X225334Y444500D03*
X289560Y426430D03*
X279400Y420080D03*
X222250Y434412D03*
X168029Y488950D03*
X151934Y489416D03*
X161290Y242570D03*
X114300Y488950D03*
D16*
X75720Y203200D03*
D21*
X139700Y488950D03*
X171450Y228600D03*
X86360Y185420D03*
X95250Y419100D03*
X69850Y461420D03*
X76200Y494574D03*
X304800Y425450D03*
X323850Y425450D03*
X243296Y636027D03*
X190500Y517616D03*
X126928Y488672D03*
D16*
X63500Y184150D03*
D21*
X57150Y19050D03*
X-31121Y6979D03*
D22*
X19050Y50800D03*
X25400Y101600D03*
X-6350Y336550D03*
D21*
X247650Y12700D03*
X330200Y6350D03*
D22*
X254000Y120650D03*
X273050Y50800D03*
M02*
