M48
;GenerationSoftware,Autodesk,EAGLE,9.5.2*%
;CreationDate,2020-03-08T21:00:08Z*%
FMAT,2
ICI,OFF
METRIC,TZ,000.000
T11C0.350
T10C0.450
T9C0.550
T8C0.600
T7C0.800
T6C0.850
T5C1.000
T4C1.016
T3C1.295
T2C1.321
T1C2.464
%
G90
M71
T1
X-12573Y33147
X-12573Y15113
X42926Y33147
X42926Y15113
T2
X26924Y46990
T3
X29210Y62230
T4
X-3175Y60325
X-635Y60325
X-3175Y57785
X-635Y57785
X-3175Y55245
X-635Y55245
X-3175Y52705
X-635Y52705
T5
X27305Y38735
X27305Y36195
X29845Y38735
X29845Y36195
X32385Y38735
X19050Y-10160
X-1905Y38735
X-1905Y36195
X635Y38735
X635Y36195
X3175Y38735
X3175Y36195
X31020Y-10160
X33020Y-10160
X35020Y-10160
X12700Y5080
X15875Y5080
X19050Y5080
X7545Y-10160
X14045Y-10160
X-2615Y-10160
X3885Y-10160
X21590Y-10160
X24130Y-10160
X32385Y36195
T6
X1905Y5080
X27305Y5080
X25400Y12065
X-635Y33655
X2540Y10160
T7
X24411Y74150
X4755Y74153
X4314Y71652
X-17909Y48336
X-20446Y48203
X24852Y71648
X47501Y48349
X50037Y48216
X-12702Y46421
X-15238Y46289
X3015Y68688
X2573Y66186
X44956Y46289
X42420Y46421
X26256Y66059
X25814Y68561
T8
X22860Y-3810
X14605Y-3810
T9
X-4445Y9525
X34290Y9525
X31496Y50800
X25400Y10160
X0Y10795
X29210Y49530
X23495Y59690
T10
X17145Y22860
X8636Y18542
X9525Y41910
X6985Y46142
X7620Y49457
X30480Y42545
X32385Y42545
X24330Y63603
X19050Y51762
X12693Y48867
X10160Y52705
X5715Y1905
X-3112Y698
X13970Y48895
X22225Y52070
X11430Y48895
X24765Y1270
X33020Y635
X16129Y24257
X15193Y48942
X16803Y48895
X22225Y43441
X27940Y42008
X28956Y42643
X22533Y44450
X17780Y49530
X14605Y19685
X13970Y37465
X13413Y19685
X12778Y38022
X12065Y19685
X12700Y39370
X1905Y58307
X16029Y59128
X16029Y60285
X16029Y61294
X16029Y62303
T11
X7572Y20320
X6350Y18415
X50800Y45720
X22225Y70485
X17145Y43180
X20955Y55245
X19050Y63500
X11430Y46355
X12065Y54610
X12700Y58420
X10160Y58420
X3175Y49530
X1420Y43815
X10795Y40005
X19050Y39370
X10795Y34290
X14018Y31115
X20955Y36195
X18415Y35560
X43815Y41275
X40640Y53340
X41275Y62230
X22375Y64852
X10160Y66040
X-13335Y41910
X3810Y13970
X-5715Y12065
X-5715Y-4445
X5715Y-3810
X10795Y-3810
X17780Y10160
X14605Y10160
X11430Y10160
X29210Y12065
X38735Y10795
X39370Y-1270
M30